<?xml version="1.0" encoding="utf-8"?>
<!-- Generator: Adobe Illustrator 16.0.0, SVG Export Plug-In . SVG Version: 6.00 Build 0)  -->
<!DOCTYPE svg PUBLIC "-//W3C//DTD SVG 1.1//EN" "http://www.w3.org/Graphics/SVG/1.1/DTD/svg11.dtd">
<svg version="1.1" id="Layer_1" focusable="false" xmlns="http://www.w3.org/2000/svg" xmlns:xlink="http://www.w3.org/1999/xlink"
	 x="0px" y="0px" width="612px" height="792px" viewBox="0 0 612 792" enable-background="new 0 0 612 792" xml:space="preserve">
<path d="M306,588.601c-19.627,0-39.254-6.048-56.012-18.156L0,389.856v254.769C0,676.313,25.688,702,57.375,702h497.25
	C586.313,702,612,676.313,612,644.625V389.856L362.013,570.444C345.254,582.54,325.627,588.601,306,588.601L306,588.601z
	 M590.019,284.776c-10.579-8.296-20.607-16.101-35.394-27.265V204.75c0-31.688-25.688-57.375-57.375-57.375h-92.696
	c-3.634-2.63-7.017-5.092-10.806-7.841C373.654,124.867,333.731,89.582,306,90c-27.731-0.418-67.643,34.867-87.748,49.534
	c-3.789,2.75-7.172,5.211-10.806,7.841H114.75c-31.688,0-57.375,25.688-57.375,57.375v52.761
	c-14.786,11.152-24.814,18.969-35.393,27.265C8.108,295.649,0.002,312.296,0,329.923v12.73l114.75,82.895V204.75h382.5v220.798
	L612,342.653v-12.73C612,312.304,603.896,295.653,590.019,284.776z"/>
<path d="M305.5,225.867c-83.035,0-150.247,67.199-150.247,150.247c0,83.035,67.199,150.247,150.247,150.247
	c29.173,0,57.762-8.567,82.034-24.368c7.272-4.735,8.861-14.715,3.364-21.43l-6.166-7.533c-4.647-5.678-12.83-7.067-19.007-3.106
	c-17.866,11.458-38.832,17.663-60.226,17.663c-61.467,0-111.474-50.006-111.474-111.473S244.033,264.64,305.5,264.64
	c60.667,0,111.474,34.908,111.474,96.934c0,23.499-12.78,48.311-35.241,50.704c-10.511-0.274-10.245-7.789-8.165-18.188
	l14.196-73.373c1.737-8.972-5.137-17.302-14.275-17.302h-27.249c-4.166,0-7.668,3.127-8.138,7.266l-0.006,0.056
	c-8.904-10.845-24.506-13.192-36.333-13.192c-45.184,0-83.503,37.704-83.503,91.758c0,39.564,22.285,64.141,58.16,64.141
	c16.348,0,34.758-9.473,45.432-23.224c5.771,20.661,24.604,20.661,42.839,20.661c65.979,0,91.057-43.385,91.057-89.306
	C455.747,278.97,389.119,225.867,305.5,225.867z M292.366,410.301c-13.48,0-21.853-9.465-21.853-24.7
	c0-27.259,18.646-44.062,35.52-44.062c13.505,0,21.568,9.233,21.568,24.7C327.602,393.538,307.079,410.301,292.366,410.301
	L292.366,410.301z"/>
</svg>
